<svg xmlns="http://www.w3.org/2000/svg" xmlns:xlink="http://www.w3.org/1999/xlink" viewBox="0 0 700 700"><defs><style>.a{fill:none;}.b{fill:#ff5f00;}.c{fill:#eb001b;}.d{fill:#f79e1b;}.e{fill:#4db45e;}.e,.f{fill-rule:evenodd;}.f{fill:url(#a);}.g{fill:#00579f;}.h{fill:#faa61a;}</style><linearGradient id="a" x1="610.72" y1="651.63" x2="741.58" y2="651.63" gradientTransform="translate(-158.09 -125.65)" gradientUnits="userSpaceOnUse"><stop offset="0.3" stop-color="#00b4e6"/><stop offset="1" stop-color="#088ccb"/></linearGradient></defs><title>cards-padding</title><rect class="a" width="700" height="700"/><rect class="b" x="305.06" y="281.84" width="96.37" height="157.39"/><path class="c" d="M315,360.56a100,100,0,0,1,38.23-78.68,100.09,100.09,0,1,0,0,157.39A100,100,0,0,1,315,360.56Z"/><path class="d" d="M505.58,422.58v-3.22H507v-.71h-3.31v.66H505v3.23Zm6.43,0v-3.93h-1l-1.2,2.78-1.2-2.78h-1v3.89h.72v-3l1.09,2.54h.74l1.09-2.54v3Z"/><path class="d" d="M515.17,360.56a100.09,100.09,0,0,1-162,78.68,100.07,100.07,0,0,0,0-157.39,100.09,100.09,0,0,1,162,78.68Z"/><path class="e" d="M258.71,500.15h0s-17.37-.06-22,16.48c-4.23,15.17-16.16,57-16.49,58.2h-3.3s-12.2-42.8-16.49-58.25c-4.65-16.43-22-16.43-22-16.43H138.86V626h39.55V551.25h3.3L204.78,626h27.56l23.08-74.68h3.29V626h39.54V500.15Z"/><path class="e" d="M403.21,500.15a22.16,22.16,0,0,0-17,13.18l-28,61.55h-3.3V500.15H315.33V626H352.7a22.8,22.8,0,0,0,17.59-13.18l27.43-61.55H401V626h39.55V500.15Z"/><path class="e" d="M458.17,557.29V626h39.55V585.87h42.87A42.81,42.81,0,0,0,581,557.29Z"/><path class="f" d="M540.62,500.15h-88a63.18,63.18,0,0,0,45.61,49.46h0a62.91,62.91,0,0,0,16.55,2.2h67.82A43,43,0,0,0,549.08,501a42.51,42.51,0,0,0-8.42-.87Z"/><polygon class="g" points="311.71 218.82 275.6 218.82 298.19 79.21 334.29 79.21 311.71 218.82"/><path class="g" d="M442.58,82.62a89,89,0,0,0-32.36-6c-35.64,0-60.74,19-60.9,46.19C349,142.88,367.3,154,381,160.7c14,6.83,18.72,11.29,18.72,17.38-.15,9.36-11.29,13.67-21.68,13.67-14.38,0-22.15-2.23-33.88-7.43l-4.8-2.23-5.05,31.34c8.47,3.86,24.06,7.28,40.27,7.43,37.87,0,62.53-18.72,62.82-47.68.14-15.9-9.51-28.07-30.3-38-12.63-6.39-20.37-10.7-20.37-17.23.14-6,6.54-12,20.79-12a61.44,61.44,0,0,1,26.89,5.35l3.26,1.48,4.92-30.15Z"/><path class="g" d="M490.57,169.38c3-8,14.38-39.06,14.38-39.06-.14.3,3-8.17,4.79-13.37l2.52,12s6.84,33.42,8.33,40.4Zm44.56-90.16H507.2c-8.61,0-15.15,2.53-18.86,11.59l-53.63,128h37.88l7.58-20.93h46.35c1,4.9,4.3,20.93,4.3,20.93h33.49L535.19,79.21Z"/><path class="g" d="M245.52,79.21l-35.35,95.21-3.86-19.32c-6.54-22.28-27-46.47-49.92-58.52l32.36,122.1h38.17L283.63,79.21Z"/><path class="h" d="M177.28,79.21H119.19L118.6,82c45.31,11.59,75.32,39.55,87.65,73.11L193.62,91c-2.08-8.91-8.48-11.44-16.34-11.74Z"/></svg>