<svg width="21" height="22" class="viber_ico" viewBox="0 0 21 22" fill="none">
    <path class="viber_cloud" fill-rule="evenodd" clip-rule="evenodd"
          d="M19.6093 5.7638C19.0816 3.47311 17.4879 1.89412 15.1597 1.39435C12.8313 0.894262 8.59014 0.845089 5.84292 1.38968C3.35836 1.88229 1.89138 3.44915 1.37708 5.74047C0.862775 8.03147 0.887572 11.4698 1.37218 13.7307C1.85678 15.9918 3.8249 17.5281 5.57628 18.0366V20.1493C5.57628 20.9136 6.49314 21.2892 7.01418 20.7372L9.11975 18.5124C9.57619 18.5386 10.0336 18.5529 10.4906 18.5529C12.0436 18.5529 13.4221 18.4524 15.138 18.1045C16.8542 17.7569 19.0825 15.8474 19.6035 13.754C20.1243 11.6603 20.138 8.05979 19.6093 5.7638Z"
          stroke="#9265F1" stroke-width="2" stroke-miterlimit="22.9256"></path>
    <path class="viber_tube" fill-rule="evenodd" clip-rule="evenodd"
          d="M13.3374 14.9633C13.1445 14.9039 12.9611 14.8641 12.7909 14.7919C11.0246 14.0472 9.3993 13.0865 8.11171 11.6133C7.37945 10.7756 6.80637 9.82957 6.32207 8.82909C6.09216 8.35421 5.89869 7.86097 5.70123 7.37115C5.52153 6.92459 5.78664 6.46278 6.06553 6.12607C6.32758 5.81052 6.66432 5.56841 7.02923 5.39009C7.31393 5.25068 7.59496 5.33128 7.80313 5.5765C8.25284 6.10708 8.66612 6.66474 9.00072 7.27966C9.20613 7.65776 9.1498 8.1205 8.77693 8.37817C8.68632 8.44041 8.60366 8.51416 8.51948 8.58481C8.4457 8.64642 8.3759 8.70897 8.32509 8.79268C8.23233 8.94641 8.22804 9.12722 8.28774 9.29402C8.74724 10.5783 9.52206 11.5766 10.7934 12.1147C10.9967 12.2009 11.2015 12.3011 11.436 12.2731C11.8281 12.2267 11.9555 11.7885 12.2304 11.5601C12.4992 11.3367 12.843 11.3336 13.1326 11.52C13.4219 11.7061 13.7032 11.9062 13.9821 12.1084C14.2564 12.307 14.5337 12.5055 14.782 12.7277C15.0297 12.9493 15.1653 13.1077 14.9715 13.5259C14.778 13.9439 14.3565 14.5164 13.8306 14.8034C13.6821 14.8846 13.5048 14.9104 13.3374 14.963C13.5045 14.9104 13.1445 14.9033 13.3374 14.963V14.9633ZM12.6911 9.34131C12.4977 9.34504 12.3945 9.23582 12.3746 9.05595C12.3605 8.93054 12.3501 8.80295 12.3201 8.68065C12.2622 8.44041 12.1364 8.21697 11.9371 8.06978C11.8435 8.00038 11.7366 7.94935 11.6255 7.91636C11.4828 7.87498 11.3362 7.88617 11.1945 7.8507C11.0414 7.81273 10.9563 7.6867 10.9802 7.53982C11.0022 7.40632 11.1299 7.30238 11.2734 7.31264C12.1689 7.37831 12.809 7.84914 12.9005 8.9212C12.907 8.99682 12.9146 9.07649 12.8981 9.14899C12.8696 9.27285 12.7796 9.33509 12.6914 9.341C12.7796 9.33477 12.498 9.34473 12.6914 9.341L12.6911 9.34131ZM14.1281 9.39857C14.1247 9.42782 14.122 9.4966 14.1052 9.56133C14.0442 9.7969 13.6925 9.82678 13.6114 9.58871C13.5872 9.51807 13.5841 9.43779 13.5841 9.36185C13.5832 8.86426 13.4764 8.36728 13.2296 7.93472C12.9761 7.48971 12.5889 7.11598 12.1343 6.88974C11.8594 6.75312 11.5618 6.66817 11.2612 6.61713C11.1292 6.59504 10.9967 6.58166 10.8641 6.56299C10.7037 6.54027 10.6183 6.43663 10.6257 6.27575C10.633 6.12544 10.7414 6.01715 10.9024 6.02618C11.4323 6.05699 11.9448 6.17337 12.4162 6.4273C13.3744 6.94295 13.9218 7.75796 14.0819 8.84496C14.0892 8.89444 14.1006 8.94298 14.1045 8.99215C14.1137 9.11445 14.1192 9.23644 14.1284 9.39826C14.1192 9.23644 14.125 9.42751 14.1284 9.39826L14.1281 9.39857ZM10.6174 4.77176C12.9275 4.83773 14.8249 6.3965 15.2311 8.71831C15.3003 9.11383 15.3254 9.51807 15.3563 9.91951C15.3692 10.0882 15.2749 10.2491 15.0955 10.2512C14.9106 10.2534 14.827 10.0963 14.8154 9.92698C14.7915 9.59307 14.775 9.25729 14.73 8.92556C14.4906 7.17635 13.1182 5.72899 11.4054 5.41873C11.1476 5.37205 10.8837 5.3596 10.6226 5.3319C10.4576 5.31417 10.2415 5.30389 10.205 5.0954C10.1744 4.92019 10.3192 4.78141 10.483 4.77238C10.5277 4.7702 10.5727 4.77176 10.6174 4.77207C10.5727 4.77176 12.9275 4.83804 10.6174 4.77207V4.77176Z"
          fill="#9265F1"></path>
</svg>