<svg xmlns="http://www.w3.org/2000/svg" viewBox="0 0 700 700"><defs><style>.a{fill:none;}.b{fill:#ffcf01;}.c{fill:#d3ab07;}.d{fill:#231f20;}</style></defs><title>yandex-padding</title><rect class="a" width="700" height="700"/><path class="b" d="M134.46,286.68c0-32,2.69-52.32,69-101.81,54.89-41,230.83-181,230.83-181V237.62H568.05V574H176.25a41.91,41.91,0,0,1-41.79-41.79Z"/><polygon class="c" points="434.27 237.62 434.27 373.04 188.42 540.53 499.25 439.39 499.25 237.62 434.27 237.62 434.27 237.62"/><path class="d" d="M321.91,230.61c14.38-17.14,35.38-23.17,46.91-13.51s9.23,31.42-5.15,48.56-35.37,23.18-46.91,13.5-9.22-31.41,5.15-48.54"/></svg>